PathFileType	4	(X/Y/Z)	C:\Github\BTS_project\Data\sports2d_results\test4 Exam_2026-03-06_143128_tvc2_Sports2D\test4 Exam_2026-03-06_143128_tvc2_Sports2D_m_person00.trc
DataRate	CameraRate	NumFrames	NumMarkers	Units	OrigDataRate	OrigDataStartFrame	OrigNumFrames
30.0	30.0	7	22	m	30.0	160	321
Frame#	Time	Hip			RHip			RKnee			RAnkle			RBigToe			RSmallToe			RHeel			LHip			LKnee			LAnkle			LBigToe			LSmallToe			LHeel			Neck			Head			Nose			RShoulder			RElbow			RWrist			LShoulder			LElbow			LWrist			
		X1	Y1	Z1	X2	Y2	Z2	X3	Y3	Z3	X4	Y4	Z4	X5	Y5	Z5	X6	Y6	Z6	X7	Y7	Z7	X8	Y8	Z8	X9	Y9	Z9	X10	Y10	Z10	X11	Y11	Z11	X12	Y12	Z12	X13	Y13	Z13	X14	Y14	Z14	X15	Y15	Z15	X16	Y16	Z16	X17	Y17	Z17	X18	Y18	Z18	X19	Y19	Z19	X20	Y20	Z20	X21	Y21	Z21	X22	Y22	Z22
160	5.35	2.1575659823884767	0.5173416462466829	0.0301	2.093578762318969	0.5818100672821128	0.0301	1.854325427323576	0.347623037838243	0.129	1.6662665814991742	0.12360140146799711	0.023	1.611405074538648	0.06301602473114835	0.2179	1.586010597995724	0.10504406601718486	0.1804	1.658304807030065	0.07642950137521672	-0.0119	2.2210610789614478	0.44364445858513335	0.0301	2.00429267653977	0.2296480526851314	0.129	1.8634625905366409	0.161616655297408	0.023	1.7899448456053846	0.04854879885557876	0.2179	1.8396168397400827	0.04978192645844975	0.1804	1.8315125447398362	0.16483767647583367	-0.0119	2.4850507166815383	0.8608742659054429	0.0008	2.6473482232009	1.053118190234583	0.0655	2.522013070303812	0.9312407221046671	0.1076	2.325963864476972	0.9468473692249741	-0.01275	2.108725748179577	0.8885514163441351	0.0702	1.9054807782149494	0.8152265583174646	0.1076	2.580331264035965	0.7032618442664926	-0.01275	2.4852677477767555	0.48862646667108184	0.0702	2.3705278130431933	0.31971689324307645	0.1076
161	5.383437499999999	2.1591089895131166	0.5187257804887319	0.0301	2.094219810460698	0.5842328165087783	0.0301	1.8554934600470665	0.3484590815563213	0.129	1.6663703693641867	0.12360977386097467	0.023	1.6108346482015354	0.06257906752500171	0.2179	1.5862745561339269	0.10519621872443459	0.1804	1.658892303841418	0.07720600294872453	-0.0119	2.222155256504046	0.44472995262160264	0.0301	2.0044706575474285	0.2291725564281126	0.129	1.8626948789508262	0.16119449274066283	0.023	1.7892239030614312	0.04824950254737357	0.2179	1.8384513815278114	0.04890854214459424	0.1804	1.8321028654329212	0.16526702619263708	-0.0119	2.4841677745285504	0.8599774413636836	0.0008	2.6466141079444623	1.052540875260244	0.0655	2.522048895552613	0.9294212662605388	0.1076	2.3241889602892307	0.9456215267570081	-0.01275	2.1068495935446774	0.8868855771130492	0.0702	1.9036054842423045	0.8136127675944181	0.1076	2.5792072588818256	0.7022620003705794	-0.01275	2.483887358087629	0.4863817147270375	0.0702	2.3700696958799763	0.3187839806006824	0.1076
162	5.416874999999999	2.1602028985437456	0.5194389519772252	0.0301	2.0943216116946117	0.5853843190115073	0.0301	1.856028583604206	0.3489095727308448	0.129	1.666378663046507	0.12362091731926729	0.023	1.6102832409712473	0.06193894089152895	0.2179	1.586182288273142	0.10510103670658014	0.1804	1.659677925057544	0.077787650502639	-0.0119	2.222969199035609	0.4450294140897577	0.0301	2.00590251499954	0.22922735838399397	0.129	1.8617732122457087	0.16037037405059668	0.023	1.7880340106463741	0.04716622839651965	0.2179	1.8357933545330687	0.047051419903268145	0.1804	1.8319908669456557	0.16466331620073427	-0.0119	2.4829296324893977	0.8591423556096256	0.0008	2.6450104186340457	1.052508198410407	0.0655	2.522482274994531	0.9281657151829141	0.1076	2.321932294355644	0.9443529537472845	-0.01275	2.1051472614795315	0.8854788398605778	0.0702	1.9008603674979345	0.8112794765037517	0.1076	2.5774251543447635	0.701143899282437	-0.01275	2.4833894877258977	0.485077238309519	0.0702	2.369625212225597	0.31679575153125156	0.1076
163	5.450312499999999	2.1594507145599713	0.5181120994669008	0.0301	2.093679820492346	0.5846294894200696	0.0301	1.8557255216370403	0.3488226937311141	0.129	1.6661449643081279	0.12374735908814793	0.023	1.6104120433522526	0.06133752050993048	0.2179	1.5860176498606278	0.10465314297404771	0.1804	1.6598108955638082	0.07746340138936211	-0.0119	2.2228524964286227	0.44445350329571476	0.0301	2.007145982235934	0.22949179551874768	0.129	1.8609609147747983	0.1598212775368129	0.023	1.7869873849209057	0.046419754723766214	0.2179	1.8337416101249358	0.046406577203316625	0.1804	1.8313850806144372	0.1638939464155315	-0.0119	2.4815823673120847	0.8588116541835279	0.0008	2.642872696667141	1.0524290783065722	0.0655	2.522182911404264	0.9279965532006856	0.1076	2.320607783093895	0.9436980770505943	-0.01275	2.1051561077470553	0.8847385266709473	0.0702	1.8996135760064394	0.810016335703319	0.1076	2.575885383331392	0.7009230732952206	-0.01275	2.483301959619203	0.48454861991831716	0.0702	2.3692816667848486	0.3158137787623424	0.1076
164	5.483749999999999	2.1576980211579397	0.5155997191593075	0.0301	2.0927254599656138	0.5826677936200577	0.0301	1.855098654100414	0.3485062860675163	0.129	1.6655895482208456	0.12366859109665009	0.023	1.6110058599082142	0.06074675258631799	0.2179	1.5863087217840204	0.10401385000363904	0.1804	1.6595421360334282	0.0771138006170823	-0.0119	2.2219931748131856	0.44384288466244093	0.0301	2.007097157371886	0.22965799163267314	0.129	1.8604387916856118	0.15971552784789989	0.023	1.7864283974556798	0.04643246939479792	0.2179	1.8329497223403723	0.04672941291478654	0.1804	1.8309446515593404	0.1635210280657624	-0.0119	2.479664296741012	0.8583370702393386	0.0008	2.6416404078536884	1.0519328986286263	0.0655	2.521059858195159	0.9278838194199118	0.1076	2.3206212872483087	0.9435660838569871	-0.01275	2.105643170605608	0.8836590947320907	0.0702	1.8991529248543326	0.8097302121311758	0.1076	2.575261220567659	0.7013513723985777	-0.01275	2.4826452078405956	0.48401876548811645	0.0702	2.3684365069970807	0.31586393459863976	0.1076
165	5.5171874999999995	2.156509990728603	0.5138914727066347	0.0301	2.0923730739377384	0.5812344339815985	0.0301	1.8545983989326773	0.3481218883007016	0.129	1.6648187380389223	0.12296325758154975	0.023	1.6114958768719605	0.06046349310388499	0.2179	1.5868846025420205	0.10350510629885827	0.1804	1.659558620266195	0.07755246436079499	-0.0119	2.221239419125282	0.44369569974024065	0.0301	2.0058229376779098	0.2292871354093092	0.129	1.8601987738986308	0.15957316567004448	0.023	1.7862447938488135	0.04650854940309713	0.2179	1.832755481480501	0.04642482867850982	0.1804	1.830797458757385	0.16339366527758933	-0.0119	2.4772893716538684	0.8571981014494288	0.0008	2.6414207102247227	1.0512728671558933	0.0655	2.5190787111377704	0.9275775338692052	0.1076	2.3208684399389083	0.9434057782423164	-0.01275	2.1048347716315	0.8820791309212117	0.0702	1.8977760420071965	0.8091706411854006	0.1076	2.575392230687076	0.701312721372261	-0.01275	2.481442369214034	0.48330105302435206	0.0702	2.36692964921684	0.31564263168380713	0.1076
166	5.550624999999999	2.1560536717709367	0.5134529152339554	0.0301	2.0926443085524924	0.5810856369126903	0.0301	1.8543490938839629	0.347857327645008	0.129	1.664278500964936	0.12216961067961601	0.023	1.6118092208586687	0.06097818720803468	0.2179	1.5872419609065769	0.10325125739713056	0.1804	1.6598469752833833	0.0784098035832152	-0.0119	2.2209355226525775	0.44354407460734563	0.0301	2.0042238570578594	0.22820309649808249	0.129	1.8598715131787538	0.15943562461275293	0.023	1.7861392307631292	0.04629237264158049	0.2179	1.832259925008444	0.04543450139574521	0.1804	1.8305981748025417	0.16330472626008397	-0.0119	2.476064738216724	0.856350695803098	0.0008	2.640645658603038	1.0502172609914635	0.0655	2.5164335374722073	0.9279517924583999	0.1076	2.320167230372512	0.9430302392924484	-0.01275	2.1036425587466745	0.8807619294545108	0.0702	1.896327032600967	0.8083573268222517	0.1076	2.575416976158271	0.7007632443497038	-0.01275	2.480429904666806	0.48289499743161884	0.0702	2.365579951641152	0.31527160731671855	0.1076
